<?xml version="1.0" encoding="UTF-8" standalone="no"?>
<svg
   xmlns:dc="http://purl.org/dc/elements/1.1/"
   xmlns:cc="http://creativecommons.org/ns#"
   xmlns:rdf="http://www.w3.org/1999/02/22-rdf-syntax-ns#"
   xmlns:svg="http://www.w3.org/2000/svg"
   xmlns="http://www.w3.org/2000/svg"
   xmlns:sodipodi="http://sodipodi.sourceforge.net/DTD/sodipodi-0.dtd"
   xmlns:inkscape="http://www.inkscape.org/namespaces/inkscape"
   sodipodi:docname="emilie.svg"
   inkscape:version="1.0 (4035a4fb49, 2020-05-01)"
   id="svg8"
   version="1.1"
   viewBox="0 0 210 297"
   height="297mm"
   width="210mm">
  <defs
     id="defs2">
    <filter
       id="filter877"
       style="color-interpolation-filters:sRGB;"
       inkscape:menu-tooltip="Roughen all inside shapes"
       inkscape:menu="Distort"
       inkscape:label="Roughen Inside">
      <feTurbulence
         id="feTurbulence869"
         baseFrequency="0.08"
         type="fractalNoise"
         seed="0"
         numOctaves="5" />
      <feGaussianBlur
         id="feGaussianBlur871"
         result="result91"
         stdDeviation="0.5" />
      <feDisplacementMap
         id="feDisplacementMap873"
         in2="result91"
         result="result1"
         in="SourceGraphic"
         xChannelSelector="R"
         yChannelSelector="G"
         scale="20" />
      <feComposite
         id="feComposite875"
         operator="atop"
         in2="SourceGraphic"
         in="result1" />
    </filter>
  </defs>
  <sodipodi:namedview
     inkscape:window-maximized="0"
     inkscape:window-y="18"
     inkscape:window-x="173"
     inkscape:window-height="1020"
     inkscape:window-width="1635"
     showgrid="false"
     inkscape:document-rotation="0"
     inkscape:current-layer="g863"
     inkscape:document-units="mm"
     inkscape:cy="503.13032"
     inkscape:cx="117.38969"
     inkscape:zoom="0.7"
     inkscape:pageshadow="2"
     inkscape:pageopacity="0.0"
     borderopacity="1.0"
     bordercolor="#666666"
     pagecolor="#ffffff"
     id="base" />
  <metadata
     id="metadata5">
    <rdf:RDF>
      <cc:Work
         rdf:about="">
        <dc:format>image/svg+xml</dc:format>
        <dc:type
           rdf:resource="http://purl.org/dc/dcmitype/StillImage" />
        <dc:title></dc:title>
      </cc:Work>
    </rdf:RDF>
  </metadata>
  <g
     id="layer1"
     inkscape:groupmode="layer"
     inkscape:label="Calque 1">
    <g
       style="opacity:1"
       id="g863">
      <path
         id="path865"
         d="m 74.995857,97.226957 c -0.48904,-0.48904 -0.504,-0.7111 -0.13699,-2.03267 0.20641,-0.74323 0.63893,-1.26148 1.71832,-2.05887 0.79336,-0.58609 1.44248,-1.16635 1.44248,-1.28947 0,-0.44643 -0.78107,-0.85748 -1.31022,-0.68954 -0.73813,0.23428 -0.68032,-0.1877 0.16304,-1.18997 0.57616,-0.68473 0.63657,-0.88099 0.33073,-1.07458 -0.71231,-0.4509 -1.12368,-0.15455 -1.53414,1.1052 -0.46233,1.41895 -1.42627,2.20783 -2.61823,2.14273 -4.145,-0.22639 -4.02701,-0.16622 -4.02701,-2.0533 0,-1.19619 -0.0783,-1.4389 -0.46302,-1.43554 -0.81924,0.007 -1.0491,0.36199 -1.24002,1.91418 -0.12864,1.04584 -0.30395,1.52136 -0.5609,1.52136 -0.29838,0 -0.34072,-0.31636 -0.20987,-1.56829 0.0902,-0.86255 0.0852,-1.77335 -0.011,-2.024 l -0.17488,-0.45573 -0.63216,0.59389 c -0.3477,0.32664 -0.70984,0.91002 -0.80477,1.2964 -0.4353,1.77182 -1.58131,2.43213 -2.34034,1.34846 l -0.38151,-0.54468 -0.70112,0.64977 c -0.71011,0.65813 -1.64737,0.68801 -2.06755,0.0659 -0.36334,-0.53793 -0.22205,-3.00855 0.19595,-3.42656 0.57868,-0.57868 1.36127,-0.76574 1.93004,-0.46134 0.27302,0.14611 0.74819,0.1998 1.05596,0.11932 l 0.55957,-0.14633 -0.0538,1.52099 c -0.0672,1.89987 0.34376,2.11683 1.1288,0.59598 1.15813,-2.24364 2.31613,-2.92261 2.95349,-1.7317 0.19612,0.36646 0.36043,0.46798 0.42823,0.26458 0.0605,-0.18151 0.44339,-0.33002 0.85086,-0.33002 0.77462,0 0.81168,0.0682 1.27994,2.35364 0.28435,1.38789 0.69886,1.11508 0.84789,-0.55804 0.1434,-1.60972 0.66265,-2.29996 1.74257,-2.31635 0.58972,-0.009 1.43007,0.74457 1.43007,1.28233 0,0.71218 -0.82713,1.88425 -1.32971,1.88425 -0.64507,0 -0.70138,0.78197 -0.0594,0.82422 1.97914,0.13023 3.08628,-1.29808 2.33087,-3.00703 -0.1802,-0.40767 -0.0411,-0.46302 1.16395,-0.46302 0.75274,0 1.59892,0.12325 1.88039,0.27389 0.55461,0.29682 0.69858,1.43151 0.21923,1.72777 -0.18825,0.11634 -0.0424,0.41279 0.40921,0.83151 0.75644,0.70141 1.0018,0.63161 2.05373,-0.58421 0.35856,-0.41443 0.45974,-0.44154 0.46663,-0.12502 0.0102,0.46714 -0.72434,1.61429 -1.23199,1.9241 -0.19069,0.11638 -0.3467,0.64433 -0.3467,1.17324 0,1.36049 -0.9486,3.15175 -2.07409,3.91654 -1.11286,0.7562 -1.69226,0.81637 -2.27264,0.23599 z m 2.17553,-0.97168 c 0.42509,-0.35279 1.37745,-2.40184 1.37745,-2.96365 0,-0.56523 -0.24738,-0.5194 -1.39092,0.25766 -1.0529,0.71546 -1.78408,1.85729 -1.78408,2.78608 0,0.49049 0.10236,0.54529 0.72612,0.38874 0.39937,-0.10024 0.88151,-0.31121 1.07143,-0.46883 z m -15.56332,-5.93923 c 0.66413,-0.84431 0.611,-1.66853 -0.12486,-1.93666 -0.91198,-0.33232 -1.71979,0.152 -1.71979,1.0311 0,1.74314 0.85547,2.1631 1.84465,0.90556 z m 10.87274,-0.62012 c 0.62503,-0.33451 0.67283,-1.26842 0.0766,-1.4972 -0.49571,-0.19022 -1.15236,0.54627 -1.15236,1.29249 0,0.54168 0.32908,0.6043 1.07572,0.20471 z m -26.45143,3.87504 c -0.48558,-0.58509 0.0842,-1.61629 1.38934,-2.51421 2.02052,-1.39016 2.79284,-3.9792 1.98817,-6.66494 -0.41057,-1.37036 0.0437,-2.40232 1.57064,-3.56825 1.2868,-0.98254 1.64214,-1.10272 1.64214,-0.55537 0,0.1939 -0.44492,0.64046 -0.9887,0.99236 -1.33884,0.86638 -1.7642,1.79868 -1.40719,3.08421 0.85705,3.08615 -0.30175,6.40482 -2.66271,7.62573 -0.52074,0.26928 -0.76223,0.59663 -0.76223,1.03321 0,0.78354 -0.36602,1.05337 -0.76946,0.56726 z m -2.01863,-0.75892 c -0.22907,-0.59017 0.34729,-1.47423 1.88556,-2.89215 1.62806,-1.5007 1.95158,-2.38725 1.89186,-5.18427 -0.0422,-1.97846 0.0378,-2.46003 0.56284,-3.38658 0.64931,-1.14582 2.31832,-2.16665 2.78286,-1.70212 0.15568,0.15569 9.2e-4,0.3434 -0.4128,0.50069 -0.85061,0.3234 -2.0595,1.7581 -2.10678,2.50031 -0.0202,0.31626 -0.009,1.4169 0.0248,2.44587 0.0678,2.06445 -0.40478,4.08227 -0.9561,4.08227 -0.19525,0 -0.355,0.17585 -0.355,0.39077 0,0.21493 -0.32742,0.60128 -0.7276,0.85856 -0.76807,0.4938 -1.57894,1.38314 -2.09753,2.30052 l -0.3116,0.55119 z m 9.34268,-1.18859 c -0.22362,-0.25466 -0.48434,-0.71868 -0.57938,-1.03115 -0.12287,-0.40402 -0.32299,-0.52886 -0.69275,-0.43216 -0.66657,0.17431 -0.67828,-0.36314 -0.0205,-0.94167 0.30159,-0.26527 0.62511,-1.12055 0.8167,-2.15908 0.1745,-0.94588 0.47278,-2.07698 0.66286,-2.51354 0.19008,-0.43656 0.41175,-0.99588 0.4926,-1.24294 0.22946,-0.70115 1.66263,-1.34225 2.27178,-1.01625 1.36794,0.7321 0.54749,3.59764 -1.71621,5.99414 -1.18981,1.2596 -1.30251,1.77954 -0.58114,2.6812 0.8229,1.02857 2.63802,-0.30695 2.6851,-1.97563 l 0.0282,-1.00094 0.70773,0.073 c 0.38925,0.0402 0.78323,-0.0491 0.87551,-0.19843 0.24168,-0.39106 0.9303,-0.33451 0.9303,0.0764 0,0.19132 -0.40378,0.54042 -0.89728,0.77575 -0.65555,0.31261 -1.0184,0.745 -1.3468,1.60492 -0.64073,1.67774 -2.67041,2.40682 -3.63674,1.30635 z m 1.14956,-4.37389 c 0.82221,-1.03047 1.82085,-2.92593 1.82085,-3.45606 0,-0.41699 -0.84738,-0.73217 -1.26858,-0.47186 -0.14785,0.0914 -0.50352,0.88046 -0.79036,1.75351 -1.06146,3.23066 -1.00634,3.73404 0.23809,2.17441 z m 6.18647,-4.61168 c -0.95141,-0.22797 -2.18009,-1.66142 -2.5253,-2.94617 -0.18196,-0.6772 -0.43235,-1.344387 -0.55641,-1.482627 -0.33604,-0.37444 -0.27318,-0.67469 0.14125,-0.67469 0.23555,0 0.43235,-0.44979 0.5499,-1.25677 0.29891,-2.05216 1.65637,-4.16616 3.37749,-5.25984 1.99647,-1.26864 3.3787,-0.48505 3.3787,1.91541 v 1.38443 l -1.193,1.19299 c -0.65615,0.65615 -1.69662,1.47082 -2.31216,1.81037 -1.32039,0.72837 -1.44399,1.10916 -0.73485,2.263927 0.45255,0.73693 0.67818,0.8599 1.57784,0.8599 1.51901,0 2.2397,-0.35853 4.3895,-2.183687 1.35417,-1.14967 2.7243,-1.64136 3.26192,-1.17059 0.27691,0.24248 0.62679,0.30723 0.96387,0.17839 0.37011,-0.14147 0.70728,-0.0393 1.12171,0.3397 l 0.59254,0.54197 0.48662,-0.44039 c 1.04553,-0.94619 2.3007,0.0101 2.01845,1.537767 -0.0865,0.46823 -0.004,0.99405 0.19781,1.268 l 0.3456,0.46803 0.5952,-0.41689 c 0.37204,-0.26059 0.5952,-0.6899 0.5952,-1.14507 0,-0.4005 0.17009,-0.95929 0.37798,-1.241767 0.45301,-0.61554 0.61942,-0.31391 0.73724,1.336297 0.0901,1.26235 0.58607,1.46342 1.61442,0.65452 l 0.70994,-0.55844 V 77.38826 c 0,-2.13271 0.54328,-4.35177 1.06542,-4.35177 0.11782,0 0.39334,-0.0687 0.61227,-0.15275 0.74036,-0.28411 1.49731,0.83062 1.49731,2.20501 0,1.69958 -0.35055,2.80528 -1.16934,3.688307 -0.73522,0.7929 -0.75526,1.08402 -0.10297,1.49548 0.28285,0.17841 0.66674,0.15853 1.19946,-0.0621 0.64477,-0.26708 0.82596,-0.54438 1.02347,-1.56642 0.29333,-1.517817 0.76917,-1.404647 0.76917,0.18295 0,2.15656 1.90219,2.17521 2.54643,0.025 0.59286,-1.978817 2.87753,-2.392657 2.87753,-0.521237 0,0.596447 -0.18495,0.873287 -0.79375,1.188107 -0.88877,0.4596 -0.90287,0.49236 -0.51986,1.20802 0.33796,0.63147 1.49197,0.67501 2.33018,0.0879 0.90057,-0.63078 1.0839,-0.16021 0.22545,0.57866 -1.05773,0.9104 -2.38376,0.86084 -3.37057,-0.12597 -0.60097,-0.60098 -0.82518,-0.69232 -1.04606,-0.42618 -0.4479,0.53969 -1.65061,0.65127 -2.53393,0.23509 -0.70928,-0.33418 -0.90819,-0.33441 -1.54932,-0.002 -0.75922,0.3939 -2.26714,0.13384 -2.26714,-0.39099 0,-0.41171 -0.6873,-0.2608 -1.32292,0.29047 -0.68093,0.59056 -1.84372,0.69627 -2.32833,0.21166 -0.24694,-0.24694 -0.38806,-0.24694 -0.635,0 -0.17462,0.17463 -0.71335,0.3175 -1.19717,0.3175 -1.00244,0 -1.48664,-0.80617 -1.34381,-2.23741 0.0651,-0.65207 -0.0188,-0.80529 -0.441,-0.80529 -0.60623,0 -1.18891,1.00021 -1.19454,2.05052 -0.002,0.46863 -0.14515,0.7276 -0.40077,0.7276 -0.30415,0 -0.39688,-0.33634 -0.39688,-1.43959 0,-2.278087 -0.99012,-2.344637 -1.52276,-0.10235 -0.3682,1.55002 -0.49426,1.74741 -0.87369,1.36798 -0.17914,-0.17913 -0.18665,-0.64624 -0.0222,-1.37832 0.13685,-0.60904 0.1871,-1.343337 0.11167,-1.631777 l -0.13714,-0.52442 -0.96077,0.58899 c -0.52842,0.32395 -1.77935,1.183877 -2.77985,1.910937 l -1.81909,1.32194 h -1.45309 c -1.25963,0 -1.53703,-0.0976 -2.08352,-0.7329 -0.40579,-0.47176 -0.63042,-1.06454 -0.63042,-1.6636 0,-0.744437 -0.0927,-0.912587 -0.46302,-0.840227 -0.63558,0.12416 -0.47618,1.383707 0.3325,2.627497 0.73411,1.1291 1.75128,1.41656 4.05568,1.14617 1.03659,-0.12163 1.78438,-0.39701 2.42484,-0.89298 1.38259,-1.07067 1.5875,-1.16228 1.5875,-0.70971 0,1.50791 -4.38908,2.98003 -7.01146,2.35168 z m 29.10417,-4.04516 c 0.0899,-0.145517 -0.0151,-0.264577 -0.23336,-0.264577 -0.21828,0 -0.47045,0.11906 -0.56039,0.264577 -0.0899,0.14553 0.0151,0.26459 0.23335,0.26459 0.21828,0 0.47046,-0.11906 0.5604,-0.26459 z m -7.05206,-1.820887 c 0.42145,-1.40669 0.38184,-2.28403 -0.12202,-2.70219 -0.7555,-0.62701 -1.42488,0.55867 -1.42488,2.52392 0,0.90551 0.0796,1.72602 0.17697,1.82335 0.30766,0.307657 1.05305,-0.58745 1.36993,-1.64508 z m -22.90626,-0.55747 c 0.13226,-0.98604 0.8435,-2.13009 2.36841,-3.80962 0.39628,-0.43647 0.66363,-0.85045 0.59411,-0.91996 -0.25056,-0.25056 -2.12394,1.49617 -2.82691,2.63579 -0.86578,1.40357 -1.29865,3.51134 -0.67171,3.27076 0.22057,-0.0846 0.46013,-0.61059 0.5361,-1.17697 z m 2.09279,-0.0337 c 1.73012,-1.11022 2.33324,-1.93218 2.33324,-3.17987 0,-1.81297 -1.21718,-1.0064 -3.02495,2.00449 -1.38433,2.30565 -1.29807,2.45222 0.69171,1.17538 z m -9.79976,2.711187 c -0.44521,-0.289 -0.18332,-1.245027 0.40265,-1.469877 0.5777,-0.22169 1.18925,0.34606 1.09364,1.0153 -0.085,0.595127 -0.89889,0.842377 -1.49629,0.454577 z m 25.36216,-3.441737 c 0,-0.1277 0.1786,-0.3804 0.39688,-0.56156 0.33157,-0.27518 0.39687,-0.23698 0.39687,0.23219 0,0.32278 -0.16875,0.56156 -0.39687,0.56156 -0.21828,0 -0.39688,-0.10448 -0.39688,-0.23219 z m 8.38567,-0.46617 c -0.21139,-0.21139 0.0276,-0.62456 0.3612,-0.62456 0.13693,0 0.24897,0.1786 0.24897,0.39688 0,0.40915 -0.3122,0.52565 -0.61017,0.22768 z m -24.87888,-6.59497 c 0.13872,-0.36151 2.3016,-2.23167 2.58097,-2.23167 0.42791,0 0.0517,0.71747 -0.77152,1.47155 -1.01092,0.92596 -2.03878,1.35775 -1.80945,0.76012 z m -0.96929,-0.58908 c 0,-0.33336 2.23536,-2.43634 2.58971,-2.43634 0.5842,0 0.3345,0.44906 -0.864,1.5538 -1.12578,1.03771 -1.72571,1.34452 -1.72571,0.88254 z"
         style="color:#000000;font-style:normal;font-variant:normal;font-weight:normal;font-stretch:normal;font-size:medium;line-height:normal;font-family:sans-serif;font-variant-ligatures:normal;font-variant-position:normal;font-variant-caps:normal;font-variant-numeric:normal;font-variant-alternates:normal;font-variant-east-asian:normal;font-feature-settings:normal;font-variation-settings:normal;text-indent:0;text-align:start;text-decoration:none;text-decoration-line:none;text-decoration-style:solid;text-decoration-color:#000000;letter-spacing:normal;word-spacing:normal;text-transform:none;writing-mode:lr-tb;direction:ltr;text-orientation:mixed;dominant-baseline:auto;baseline-shift:baseline;text-anchor:start;white-space:normal;shape-padding:0;shape-margin:0;inline-size:0;clip-rule:nonzero;display:inline;overflow:visible;visibility:visible;isolation:auto;mix-blend-mode:normal;color-interpolation:sRGB;color-interpolation-filters:linearRGB;solid-color:#000000;solid-opacity:1;vector-effect:none;fill:#000000;fill-opacity:1;fill-rule:nonzero;stroke:none;stroke-width:0.264583;stroke-linecap:butt;stroke-linejoin:miter;stroke-miterlimit:4;stroke-dasharray:none;stroke-dashoffset:0;stroke-opacity:1;filter:url(#filter877);color-rendering:auto;image-rendering:auto;shape-rendering:auto;text-rendering:auto;enable-background:accumulate;stop-color:#000000;stop-opacity:1" />
    </g>
  </g>
</svg>
