<?xml version="1.0" encoding="UTF-8" standalone="no"?>
<svg
   xmlns:dc="http://purl.org/dc/elements/1.1/"
   xmlns:cc="http://creativecommons.org/ns#"
   xmlns:rdf="http://www.w3.org/1999/02/22-rdf-syntax-ns#"
   xmlns:svg="http://www.w3.org/2000/svg"
   xmlns="http://www.w3.org/2000/svg"
   xmlns:sodipodi="http://sodipodi.sourceforge.net/DTD/sodipodi-0.dtd"
   xmlns:inkscape="http://www.inkscape.org/namespaces/inkscape"
   width="141.58409mm"
   height="75.19857mm"
   viewBox="0 0 141.58409 75.19857"
   version="1.1"
   id="svg8"
   inkscape:version="1.0 (4035a4fb49, 2020-05-01)"
   sodipodi:docname="titre.svg">
  <defs
     id="defs2" />
  <sodipodi:namedview
     fit-margin-bottom="0"
     fit-margin-right="0"
     fit-margin-left="0"
     fit-margin-top="0"
     id="base"
     pagecolor="#ffffff"
     bordercolor="#666666"
     borderopacity="1.0"
     inkscape:pageopacity="0.0"
     inkscape:pageshadow="2"
     inkscape:zoom="0.7"
     inkscape:cx="9.1076059"
     inkscape:cy="199.03509"
     inkscape:document-units="mm"
     inkscape:current-layer="layer1"
     inkscape:document-rotation="0"
     showgrid="false"
     inkscape:snap-text-baseline="false"
     inkscape:window-width="2560"
     inkscape:window-height="1351"
     inkscape:window-x="-9"
     inkscape:window-y="-9"
     inkscape:window-maximized="1" />
  <metadata
     id="metadata5">
    <rdf:RDF>
      <cc:Work
         rdf:about="">
        <dc:format>image/svg+xml</dc:format>
        <dc:type
           rdf:resource="http://purl.org/dc/dcmitype/StillImage" />
        <dc:title></dc:title>
      </cc:Work>
    </rdf:RDF>
  </metadata>
  <g
     transform="translate(-21.129222,-42.087776)"
     inkscape:label="Calque 1"
     inkscape:groupmode="layer"
     id="layer1">
    <path
       style="fill:#000000;stroke-width:0.352778"
       d="m 48.31299,116.59944 c -0.298323,-0.80644 0.0093,-4.42696 0.796093,-9.36759 0.308962,-1.94028 0.514226,-3.92465 0.456141,-4.40972 -0.09855,-0.82301 -0.156503,-0.78765 -0.867142,0.52917 -0.784891,1.4544 -3.694126,3.70416 -4.789963,3.70416 -1.10233,0 -0.638496,-0.98478 0.942392,-2.00083 1.519894,-0.97684 3.209283,-3.39906 5.247767,-7.524172 1.042487,-2.10959 1.848485,-2.23918 2.403581,-0.38644 l 0.425803,1.4212 1.270607,-0.98734 c 1.966792,-1.52834 2.046943,-1.54163 3.013149,-0.49962 1.046303,1.12839 1.15516,2.47185 0.378626,4.672782 -0.847524,2.40213 0.503223,3.62648 2.702397,2.44952 0.511158,-0.27356 0.829716,-0.27598 1.097362,-0.008 0.813286,0.81329 -2.595499,3.12648 -3.966182,2.69145 -0.370068,-0.11746 -1.019405,-0.92944 -1.442971,-1.80441 -0.752312,-1.55407 -0.756496,-1.6394 -0.180918,-3.69074 0.808009,-2.879732 0.24409,-3.595952 -1.570648,-1.994832 -1.52987,1.349792 -2.363357,3.125282 -2.603094,5.545112 -0.124947,1.26118 -0.462351,3.40424 -0.749784,4.76237 -0.287436,1.35811 -0.522608,3.06977 -0.522608,3.80368 0,1.52715 -0.83723,3.78116 -1.404479,3.78116 -0.210182,0 -0.496436,-0.30896 -0.636129,-0.68658 z m 14.899767,-10.12507 c -1.961758,-2.11678 -2.017607,-5.79175 -0.117803,-7.751852 1.025807,-1.05837 1.364661,-1.19206 3.021453,-1.19206 2.004286,0 1.721972,-0.22795 3.865453,3.121182 0.24898,0.38903 2.250934,-1.293172 2.726951,-2.291392 1.055452,-2.2133 2.006713,-1.08553 1.723048,2.042772 -0.115534,1.27417 -0.01453,2.45364 0.268641,3.1373 0.389279,0.93981 0.583617,1.06294 1.367264,0.86625 1.201117,-0.30146 1.317463,-0.53896 1.596037,-3.25801 0.129985,-1.268712 0.450868,-2.613042 0.713073,-2.987392 0.465332,-0.66436 0.490298,-0.66129 1.043397,0.12838 0.393308,0.56152 0.56666,1.58804 0.56666,3.355532 0,1.40059 0.162623,2.64703 0.361386,2.76987 0.198762,0.12284 0.802993,0.12635 1.342733,0.008 1.43972,-0.31622 2.25045,-1.91278 2.11273,-4.16052 l -0.11268,-1.838972 1.41111,-0.22068 c 0.77611,-0.12138 2.04611,-0.37553 2.82222,-0.56476 2.15558,-0.5256 2.29306,-0.37302 2.29306,2.544902 0,4.37835 0.81754,5.26374 3.39151,3.67294 0.64995,-0.4017 1.34337,-0.63045 1.54094,-0.50835 0.45478,0.28107 0.47298,1.59148 0.0221,1.59148 -0.18541,0 -0.92193,0.39687 -1.63673,0.88194 -1.95973,1.32992 -3.09868,1.17834 -4.37394,-0.5821 -0.89117,-1.23023 -1.06055,-1.79363 -1.06055,-3.52778 0,-1.906582 -0.0604,-2.063322 -0.79375,-2.058332 -1.26548,0.009 -1.57424,0.405832 -1.84157,2.369202 -0.1382,1.01498 -0.56896,2.24929 -0.95723,2.74291 -1.35961,1.72846 -4.71813,2.50782 -5.960786,1.38323 -0.557541,-0.50457 -0.71023,-0.50457 -1.685954,0 -0.590091,0.30515 -1.384162,0.55481 -1.764608,0.55481 -0.950602,0 -2.379599,-1.79577 -2.672839,-3.35886 -0.223283,-1.1902 -0.317341,-1.27385 -1.186984,-1.05558 -1.013615,0.2544 -1.466688,0.74448 -1.47532,1.59583 -0.01307,1.29113 -3.183947,3.52418 -5.004199,3.52418 -0.373627,0 -1.068786,-0.42024 -1.544803,-0.93387 z m 3.556339,-1.69396 c 1.55147,-0.64825 1.637926,-1.7258 0.198204,-2.47031 -0.563855,-0.29158 -1.237608,-1.01003 -1.497227,-1.59655 -0.601811,-1.359592 -1.188064,-1.356322 -1.664113,0.009 -0.44038,1.26327 -0.171394,3.07869 0.585459,3.95138 0.649136,0.74848 0.821994,0.7562 2.377677,0.1062 z m 50.944504,1.41542 c -2.44621,-1.36373 -2.63423,-6.647052 -0.2986,-8.390852 0.47045,-0.35124 1.83752,-0.82127 3.03793,-1.04451 2.48807,-0.46271 2.8045,-0.31954 4.2081,1.9039 0.73909,1.17079 0.9247,1.27919 1.63567,0.95525 0.44109,-0.20097 1.1162,-0.95168 1.50026,-1.66825 1.02619,-1.91465 1.75445,-1.72373 1.75857,0.46104 0.005,2.478862 0.48882,4.672802 1.08135,4.900182 0.58925,0.22611 1.63281,-0.10546 1.98229,-0.62983 0.13461,-0.20197 0.34754,-1.32712 0.47318,-2.50033 0.25311,-2.363552 0.89385,-3.559072 1.73458,-3.236452 0.4335,0.16635 0.54611,0.82586 0.54611,3.198432 0,3.16805 0.20557,3.58525 1.59473,3.23659 1.23667,-0.31038 2.5254,-2.78583 2.81624,-5.409562 0.22649,-2.04313 0.19329,-2.20487 -0.45258,-2.20487 -0.82287,0 -1.647,-0.86997 -1.3221,-1.39566 0.12516,-0.20252 0.6128,-0.36822 1.08362,-0.36822 0.71931,0 0.91947,-0.25187 1.25309,-1.57684 0.39466,-1.56733 1.18138,-2.61694 1.62727,-2.17105 0.12826,0.12827 0.32286,0.90495 0.43244,1.72596 l 0.19924,1.49276 1.76082,0.17639 c 1.28013,0.12823 1.79155,0.33842 1.87337,0.76995 0.13677,0.72137 -1.12465,1.46297 -2.01032,1.18187 -1.47232,-0.4673 -1.80026,0.0807 -1.80026,3.00821 0,4.247462 1.0072,5.615022 2.76073,3.748482 0.49837,-0.5305 0.76704,-1.2676 0.76704,-2.10439 0,-1.957042 1.73107,-3.781902 3.58752,-3.781902 1.83543,0 2.60433,0.44985 3.07459,1.79885 0.56775,1.62866 -0.31737,3.326652 -2.02006,3.875212 -0.70986,0.2287 -1.42006,0.4901 -1.57822,0.5809 -0.54432,0.31248 0.92735,1.50613 1.84155,1.49365 2.24299,-0.0306 3.68487,-1.77071 4.56706,-5.511622 0.72531,-3.0756 1.20021,-3.46759 2.51085,-2.07248 0.50738,0.54009 1.22711,0.89382 1.81859,0.89382 1.58004,0 2.95507,2.09352 2.95507,4.499172 0,1.82321 -0.0708,1.96939 -1.5875,3.28013 -0.87313,0.75453 -1.8732,1.37661 -2.22238,1.3824 -1.25155,0.0207 -2.73368,-1.04546 -2.94885,-2.12133 -0.22509,-1.12544 -0.63167,-1.35284 -0.94745,-0.52992 -0.33889,0.88313 -2.91621,1.95622 -4.69839,1.95622 -1.39621,0 -1.86128,-0.18254 -2.81145,-1.10347 l -1.13849,-1.10347 -0.95435,0.75069 c -1.46632,1.15341 -2.73622,0.97911 -3.99531,-0.54839 l -1.07081,-1.29908 -0.70147,0.89177 c -0.38581,0.49048 -1.43652,1.1725 -2.33492,1.51559 -1.5483,0.59131 -1.69219,0.59219 -2.76057,0.0168 -1.04536,-0.56296 -1.22557,-0.56587 -2.48388,-0.0401 -0.7462,0.31179 -1.57547,0.56688 -1.84282,0.56688 -0.80609,0 -1.83655,-1.28688 -2.24496,-2.80361 -0.21174,-0.78635 -0.49793,-1.42409 -0.63597,-1.41722 -0.73597,0.0367 -1.92673,1.04504 -2.50267,2.11936 -1.14236,2.13088 -5.2845,3.67481 -7.11748,2.65295 z m 4.87125,-2.40672 c 0.57654,-0.45474 0.56957,-1.67254 -0.01,-1.67254 -0.52364,0 -2.36689,-1.66974 -2.9442,-2.667062 -0.38972,-0.67324 -0.40828,-0.67344 -1.14652,-0.0123 -1.02033,0.913782 -1.0438,3.444282 -0.0412,4.446832 0.5791,0.5791 0.98345,0.66731 2.20486,0.48101 0.82264,-0.12548 1.69415,-0.38466 1.93669,-0.57596 z m 37.49843,0.003 c 0.58536,-0.62047 0.70995,-1.09186 0.57074,-2.15938 -0.22202,-1.702592 -0.43664,-1.911862 -2.10297,-2.050592 -1.3281,-0.11056 -1.34572,-0.095 -1.97426,1.740532 -0.34882,1.01864 -0.48522,1.85208 -0.3031,1.85208 0.18212,0 0.73476,0.3175 1.22809,0.70556 1.15216,0.90629 1.65965,0.88895 2.5815,-0.0882 z m -9.62899,-3.53143 c 0.65752,-0.517902 0.53942,-1.665392 -0.17639,-1.713852 -1.63619,-0.11078 -2.19,0.32337 -2.19946,1.724212 -0.005,0.69495 0.12249,0.76992 0.96474,0.56872 0.53358,-0.12746 1.16858,-0.38805 1.41111,-0.57908 z m -27.6343,-1.092392 c -0.22681,-0.59105 -0.8525,-0.80936 -0.8525,-0.29744 0,0.34321 0.78703,1.165002 0.95492,0.99711 0.066,-0.066 0.0199,-0.38086 -0.10242,-0.69967 z m -20.15343,6.232462 c -0.13819,-0.3601 -0.0353,-0.66069 0.25977,-0.75905 1.30175,-0.43392 3.81595,-3.34095 4.55195,-5.263182 l 0.77521,-2.02462 -0.72773,-0.484 c -0.80333,-0.53429 -0.99296,-1.80905 -0.26911,-1.80905 0.25224,0 0.64322,0.1846 0.86884,0.41022 0.31178,0.31178 0.49803,0.17928 0.77611,-0.55213 0.20124,-0.5293 0.36832,-1.38858 0.37129,-1.90953 0.007,-1.27828 0.47096,-1.92462 1.27159,-1.77257 0.51316,0.0974 0.70321,0.52452 0.83967,1.88679 0.15058,1.50316 0.27964,1.74911 0.88195,1.68072 0.38805,-0.0441 1.15124,0.0102 1.69597,0.12068 0.75816,0.1537 0.96498,0.37442 0.88194,0.94121 -0.0891,0.60837 -0.38446,0.75435 -1.65601,0.81849 -0.85114,0.0429 -1.69366,0.29044 -1.87227,0.55001 -0.17861,0.25957 -0.24589,1.65767 -0.14952,3.106892 0.22589,3.39679 0.70976,3.84654 3.38457,3.14591 0.32126,-0.0841 0.56616,0.15988 0.63922,0.63697 0.0867,0.56624 -0.16618,0.92057 -0.94424,1.32292 -1.45517,0.75249 -2.1336,0.69321 -3.61918,-0.31627 -1.06461,-0.72341 -1.31657,-1.14402 -1.53213,-2.55764 l -0.25799,-1.69184 -0.5603,0.88195 c -0.91375,1.43828 -4.04105,4.23333 -4.73656,4.23333 -0.35434,0 -0.74721,-0.26829 -0.87304,-0.59621 z m 22.05995,-10.370792 c -1.74404,-0.89475 -2.74715,-2.41035 -2.99819,-4.53002 -0.17386,-1.46795 -0.0482,-2.09201 0.7495,-3.72246 0.56215,-1.149 1.34756,-2.163 1.89972,-2.45263 0.51773,-0.27158 1.51391,-1.18481 2.21373,-2.02939 0.69981,-0.84458 2.04919,-1.9273 2.99861,-2.40604 2.0918,-1.05478 2.24701,-1.25058 2.23565,-2.82024 l -0.009,-1.23472 -0.9558,1.09689 c -1.67413,1.92123 -3.0037,2.29117 -5.27839,1.46864 -1.07978,-0.39046 -1.25587,-0.36036 -1.78893,0.3058 -0.64705,0.80861 -2.48458,1.53839 -3.87353,1.53839 -0.57233,0 -1.35711,-0.49742 -2.22628,-1.41111 -0.7383,-0.77611 -1.44107,-1.41111 -1.56171,-1.41111 -0.12065,0 -1.19046,0.56915 -2.37738,1.26478 -2.40988,1.4124 -3.64696,1.43271 -5.08316,0.0835 l -0.80638,-0.75756 -2.44809,0.96048 c -1.34644,0.52825 -2.62936,1.1789 -2.85092,1.44586 -0.97311,1.17254 -3.73957,0.934 -5.38117,-0.46397 -0.7545,-0.64253 -0.80745,-2.28891 -0.0927,-2.88211 0.63584,-0.52771 1.59198,-0.22624 1.59198,0.50195 0,0.65266 1.07583,1.25821 2.23535,1.25821 0.99625,0 1.64521,-1.36486 1.64521,-3.46013 0,-1.02522 -0.28689,-1.50158 -1.66801,-2.76958 -0.9174,-0.84227 -1.79253,-1.5314 -1.94472,-1.5314 -0.1522,0 -0.65253,0.83344 -1.11185,1.85209 -0.96367,2.13717 -3.33841,4.57588 -5.21727,5.35781 -0.71434,0.29729 -1.39573,0.69736 -1.5142,0.88906 -0.21379,0.34592 -1.73419,0.8045 -4.02413,1.21372 -1.04272,0.18635 -1.34212,0.0547 -2.38125,-1.04711 -1.34995,-1.43137 -1.51879,-2.7005 -0.53025,-3.98593 0.54076,-0.70317 0.75968,-0.773 1.38101,-0.44048 0.59699,0.3195 0.70142,0.62291 0.54536,1.58454 -0.24026,1.48056 0.14722,1.73497 2.00629,1.31726 1.80472,-0.40549 1.77688,-0.37632 2.00866,-2.1044 0.33006,-2.46075 -0.0224,-3.06674 -2.45487,-4.22026 -1.21247,-0.57499 -2.30294,-0.98663 -2.42326,-0.91475 -0.12032,0.0719 -0.56397,1.05377 -0.9859,2.18198 -0.49697,1.32888 -1.38586,2.69656 -2.52401,3.88352 -2.521325,2.62947 -4.016182,2.85731 -5.191856,0.7913 -0.332458,-0.58422 -0.776337,-1.06323 -0.986399,-1.06445 -0.210058,-0.001 -0.891942,0.63241 -1.51529,1.40809 -2.540511,3.16132 -5.45236,3.07105 -8.377174,-0.25971 l -1.102169,-1.25515 -1.45547,1.16964 c -0.800505,0.64331 -1.455465,1.29786 -1.455465,1.45457 0,0.39656 -2.976369,1.71366 -3.87253,1.71366 -2.179479,0 -4.594137,-2.27119 -4.594137,-4.32116 0,-0.48758 0.396875,-1.9409 0.881944,-3.22961 1.062994,-2.82412 1.090796,-3.71685 0.18959,-6.08794 -0.947723,-2.49347 -0.518788,-5.38523 1.036871,-6.99026 0.586627,-0.60525 1.066595,-1.32078 1.066595,-1.59008 0,-0.2693 0.320156,-0.83043 0.711458,-1.24695 1.06802,-1.13686 2.118864,-4.43294 1.88087,-5.89954 -0.505079,-3.11243 -3.444748,-4.02789 -6.569894,-2.04599 -1.083952,0.68742 -1.729676,1.38028 -1.89049,2.02847 -0.45986,1.85354 -2.170688,5.29295 -3.178613,6.3902 -3.010531,3.27733 -3.340897,4.25403 -2.825245,8.35259 0.831744,6.61098 0.260622,10.09734 -2.184492,13.33496 -1.051748,1.39264 -1.906422,2.18725 -2.352584,2.18725 -1.170147,0 -1.034587,-1.37559 0.331227,-3.36113 1.715537,-2.49396 2.102411,-4.14569 1.774224,-7.57497 -0.14855,-1.55222 -0.259479,-4.213 -0.246508,-5.91284 0.02007,-2.62946 0.154395,-3.31383 0.900253,-4.58654 0.482166,-0.82276 1.21829,-1.80509 1.635827,-2.18295 1.230648,-1.11372 3.099206,-4.48872 3.356966,-6.06336 0.290096,-1.77218 -0.265973,-4.02634 -1.202266,-4.87367 -0.61716,-0.55852 -0.884344,-0.57784 -2.530387,-0.18296 -2.269059,0.54434 -3.372715,1.70778 -3.671479,3.87037 -0.120623,0.87313 -0.290009,1.74625 -0.376415,1.94028 -0.34577,0.77645 -1.818528,3.11066 -3.403952,5.39502 -1.941252,2.79705 -2.269273,4.30844 -1.746937,8.04917 0.586041,4.19697 -0.503865,7.53554 -3.51025,10.7525 -1.280567,1.37027 -2.404081,2.08525 -3.276732,2.08525 -1.023463,0 -0.567737,-1.3682 0.989375,-2.97036 2.758798,-2.83859 3.177502,-4.16411 3.240525,-10.2588 0.04674,-4.52037 0.152132,-5.44765 0.723037,-6.36182 0.367573,-0.58858 0.985815,-1.60077 1.373871,-2.24932 0.388056,-0.64854 1.059589,-1.61489 1.492297,-2.14744 1.021166,-1.2568 2.21187,-4.04845 2.21187,-5.18583 0,-1.1718 -1.216258,-3.27748 -2.405127,-4.16392 -0.758005,-0.56519 -1.472646,-0.70096 -3.592095,-0.68243 -2.223309,0.0194 -2.91163,0.17817 -4.310237,0.99399 -1.968513,1.14825 -3.30956,2.64706 -4.238089,4.73667 -0.535447,1.20499 -0.834939,1.49776 -1.443509,1.41111 -1.008724,-0.14364 -1.187435,-1.61444 -0.384761,-3.16664 0.654386,-1.26545 3.957279,-4.51126 4.600761,-4.52125 0.218777,-0.003 0.603014,-0.25347 0.853861,-0.55572 0.79633,-0.95953 2.911278,-1.62682 5.145732,-1.62355 2.569079,0.004 5.215924,1.17325 6.569378,2.90265 0.937767,1.19824 0.813373,1.2108 3.437419,-0.34715 0.291042,-0.1728 1.188582,-0.50865 1.994539,-0.74634 1.27829,-0.37698 1.638596,-0.34756 2.822222,0.23047 0.835332,0.40794 1.628037,1.17074 2.062406,1.98459 0.825895,1.54744 1.597854,1.67472 3.000248,0.49469 1.128903,-0.94991 4.367265,-1.48673 5.764374,-0.95555 1.193024,0.45359 2.970661,3.13621 3.447719,5.20293 0.355088,1.53833 0.305085,1.90942 -0.522069,3.87466 -0.503125,1.19536 -1.433788,2.94067 -2.068146,3.87846 -0.634358,0.93779 -1.50067,2.45253 -1.92514,3.36609 l -0.771761,1.66102 0.727759,2.57166 c 0.800485,2.82865 0.642296,5.01695 -0.615138,8.50951 -0.591669,1.64338 -0.589735,1.72549 0.05503,2.33728 0.367531,0.34874 1.164773,0.72538 1.771646,0.83699 0.894673,0.16452 1.361821,-0.0122 2.469445,-0.93441 0.751321,-0.62552 1.956227,-1.57434 2.677569,-2.10849 0.902988,-0.66865 1.446364,-1.43533 1.744377,-2.46121 0.538956,-1.85533 1.569244,-3.52155 3.375374,-5.45878 1.082365,-1.16094 1.65287,-1.49931 2.527879,-1.49931 1.393743,0 3.1568,0.86145 4.093615,2.00018 l 0.705556,0.85763 0.672913,-1.25252 c 0.750104,-1.39619 0.978782,-1.49614 1.629434,-0.71215 0.350595,0.42244 0.360021,0.83554 0.04319,1.89301 -0.222896,0.74396 -0.405264,2.46758 -0.405264,3.83028 0,1.97267 0.144825,2.64737 0.710603,3.31046 l 0.710601,0.83283 1.595278,-1.76389 c 0.877402,-0.97014 1.677842,-2.16076 1.778752,-2.64583 1.20756,-5.80476 2.29211,-6.94325 4.21397,-4.42355 0.51217,0.67148 1.27431,1.32237 1.69364,1.4464 2.46508,0.72912 4.35861,3.05051 4.54339,5.56999 l 0.0996,1.35811 0.98183,-0.77556 c 1.63132,-1.28859 2.72234,-3.87131 2.72234,-6.4445 0,-3.54104 1.14969,-4.08969 2.83395,-1.35241 0.58495,0.95066 1.62621,2.15765 2.31391,2.68218 1.9911,1.51868 3.3188,3.59526 3.3188,5.1907 0,1.29909 0.058,1.37494 0.97014,1.26998 0.914,-0.10516 0.98444,-0.24124 1.21719,-2.35165 0.13588,-1.23201 0.47259,-2.58139 0.74825,-2.99861 1.16376,-1.76143 3.02138,-3.42627 4.60423,-4.12644 1.4581,-0.64499 1.83977,-0.68879 2.74278,-0.31475 0.57694,0.23897 1.63469,0.45095 2.35055,0.47105 1.28893,0.0362 1.30094,0.0503 1.23498,1.44767 -0.28504,6.03928 -0.25675,7.17506 0.20002,8.03099 0.62803,1.17684 1.88089,1.47988 3.23126,0.78158 1.0249,-0.52999 1.05676,-0.61723 0.83524,-2.28713 -0.27998,-2.11053 0.41198,-4.06987 2.21566,-6.27381 1.52137,-1.85899 2.93486,-2.48609 4.92342,-2.1843 0.81736,0.12404 1.71247,0.0988 1.98914,-0.056 0.28979,-0.16218 0.76422,-0.0905 1.11915,0.16899 0.52014,0.38034 0.64156,1.2165 0.77953,5.36842 0.0899,2.70485 0.30167,5.0582 0.47062,5.22967 0.17695,0.17958 0.97388,-0.11001 1.8796,-0.68301 1.36693,-0.86478 1.59377,-1.18447 1.73603,-2.44654 0.24206,-2.14757 1.96277,-5.69316 3.35706,-6.91736 1.08676,-0.95419 1.38393,-1.0464 2.68159,-0.83215 0.80267,0.13252 1.46955,0.26251 1.48195,0.28885 0.0124,0.0263 0.36959,0.50586 0.79375,1.06561 1.30022,1.71583 0.76205,5.50867 -0.78163,5.50867 -0.24997,0 -0.74399,0.3199 -1.09783,0.71089 -0.35384,0.39099 -1.13251,0.83693 -1.73037,0.99098 -0.70195,0.18088 -1.1243,0.5336 -1.19225,0.99568 -0.36944,2.51251 5.60984,1.98724 7.61639,-0.66908 0.25648,-0.33955 0.77484,-0.61736 1.15189,-0.61736 0.87677,0 0.91017,1.29247 0.0603,2.33584 -0.84455,1.0369 -3.52181,2.50246 -5.0979,2.79063 -1.66464,0.30437 -4.61456,-0.38974 -5.4149,-1.27411 -0.33715,-0.37255 -0.83181,-0.67736 -1.09922,-0.67736 -0.39215,0 -3.85781,1.57644 -4.27647,1.94526 -0.0602,0.0531 -0.34301,1.81991 -0.62836,3.92631 -0.78178,5.77089 -2.86751,9.37666 -6.49744,11.23262 -1.58183,0.80878 -1.59826,0.80964 -2.88203,0.15103 z m 3.53363,-3.03804 c 1.32665,-0.82942 3.15851,-5.16399 3.43662,-8.13177 0.27586,-2.94384 0.0706,-3.11373 -1.93486,-1.60143 -4.36397,3.29081 -6.23623,5.96736 -5.87222,8.39478 0.33267,2.21842 2.09815,2.75908 4.37046,1.33842 z M 72.666792,76.206248 c 0.533577,-0.66873 0.970139,-1.31243 0.970139,-1.43046 0,-0.11802 0.336106,-0.95239 0.746901,-1.85414 0.574929,-1.26204 0.655567,-1.76526 0.35022,-2.18551 -0.218179,-0.30027 -0.580432,-0.9046 -0.80501,-1.34295 -0.233786,-0.45632 -0.991937,-0.97185 -1.773675,-1.20607 -1.329934,-0.39845 -1.401558,-0.37371 -2.761188,0.95393 -3.072166,2.99989 -3.161563,7.29781 -0.16697,8.02735 1.790573,0.43622 2.47704,0.24419 3.439583,-0.96215 z m 41.563028,-0.4481 c 1.12731,-1.00444 2.09322,-3.15826 2.09322,-4.66755 0,-1.35941 -1.53469,-2.62038 -2.80695,-2.3063 -2.72406,0.67247 -4.81349,5.20566 -3.51645,7.6292 0.32214,0.60193 0.59532,0.6724 1.81061,0.46708 0.78717,-0.133 1.87598,-0.63809 2.41957,-1.12243 z m 14.44751,0.0728 c 1.36803,-0.70744 1.74244,-1.49827 1.99628,-4.21659 0.20721,-2.21903 0.1886,-2.28697 -0.74262,-2.71127 -1.32427,-0.60337 -2.5415,0.18789 -3.84887,2.50196 -1.20137,2.12646 -1.10599,4.06553 0.22636,4.60215 1.07834,0.43431 1.20662,0.42476 2.36885,-0.17625 z m 13.97277,-3.20648 c 1.83504,-0.75806 2.60072,-1.49342 2.60072,-2.49772 0,-0.80278 -1.06881,-1.52409 -2.25834,-1.52409 -0.45279,0 -2.32777,3.3429 -2.32777,4.1502 0,0.57234 0.3428,0.55017 1.98539,-0.12839 z"
       id="path873" />
    <path
       style="fill:#000000;stroke-width:0.352778"
       id="path871"
       d="" />
    <path
       style="fill:#000000;stroke-width:0.352778"
       id="path869"
       d="" />
  </g>
</svg>
