<?xml version="1.0" encoding="UTF-8" standalone="no"?>
<svg
   xmlns:dc="http://purl.org/dc/elements/1.1/"
   xmlns:cc="http://creativecommons.org/ns#"
   xmlns:rdf="http://www.w3.org/1999/02/22-rdf-syntax-ns#"
   xmlns:svg="http://www.w3.org/2000/svg"
   xmlns="http://www.w3.org/2000/svg"
   xmlns:sodipodi="http://sodipodi.sourceforge.net/DTD/sodipodi-0.dtd"
   xmlns:inkscape="http://www.inkscape.org/namespaces/inkscape"
   width="54.2925mm"
   height="24.193989mm"
   viewBox="0 0 54.2925 24.193989"
   version="1.1"
   id="svg8"
   inkscape:version="1.0 (4035a4fb49, 2020-05-01)"
   sodipodi:docname="vagues.svg">
  <defs
     id="defs2" />
  <sodipodi:namedview
     fit-margin-bottom="0"
     fit-margin-right="0"
     fit-margin-left="0"
     fit-margin-top="0"
     id="base"
     pagecolor="#ffffff"
     bordercolor="#666666"
     borderopacity="1.0"
     inkscape:pageopacity="0.0"
     inkscape:pageshadow="2"
     inkscape:zoom="0.35"
     inkscape:cx="82.597112"
     inkscape:cy="112.10773"
     inkscape:document-units="mm"
     inkscape:current-layer="layer1"
     inkscape:document-rotation="0"
     showgrid="false"
     inkscape:snap-text-baseline="false"
     inkscape:window-width="2560"
     inkscape:window-height="1351"
     inkscape:window-x="-9"
     inkscape:window-y="-9"
     inkscape:window-maximized="1" />
  <metadata
     id="metadata5">
    <rdf:RDF>
      <cc:Work
         rdf:about="">
        <dc:format>image/svg+xml</dc:format>
        <dc:type
           rdf:resource="http://purl.org/dc/dcmitype/StillImage" />
        <dc:title></dc:title>
      </cc:Work>
    </rdf:RDF>
  </metadata>
  <g
     transform="translate(-105.56017,-105.5768)"
     inkscape:label="Calque 1"
     inkscape:groupmode="layer"
     id="layer1">
    <path
       style="fill:#000000;stroke-width:0.352778"
       id="path871"
       d="" />
    <path
       style="fill:#000000;stroke-width:0.352778"
       id="path869"
       d="" />
    <path
       id="path902"
       style="fill:#000000;stroke-width:0.211667"
       d="m 128.16234,129.5996 c -1.82549,-0.37908 -3.71274,-0.37885 -5.43474,-1.17015 -1.97946,-0.95392 -4.10228,-1.68556 -6.19681,-2.29053 0.62014,-1.86412 3.5403,0.0929 4.93825,0.42086 2.14579,0.86797 4.29264,1.94972 6.68648,1.7602 1.94789,0.0876 3.93222,0.0819 5.69651,-0.84064 1.7635,-0.84403 3.68553,-1.72474 4.56826,-3.61847 1.0541,-1.96754 2.85246,-3.25005 5.14118,-3.15456 2.004,0.10889 3.90815,-0.5601 5.52785,-1.72676 0.67173,-0.59221 2.96678,-1.95709 2.03622,-0.0576 -1.95004,1.298 -3.98248,2.78641 -6.44824,2.7237 -1.8644,0.0477 -4.02365,0.42806 -4.81251,2.37522 -1.05658,1.83197 -2.71511,3.32274 -4.61296,4.2314 -2.11468,0.80534 -4.33977,1.50906 -6.62105,1.51852 l -0.23712,-0.0729 -0.23132,-0.0983 z m -1.16211,-4.32436 c -2.19035,-0.38696 -4.16117,-1.41365 -6.19303,-2.25038 -1.64638,-0.88427 -3.25568,-1.90225 -5.16033,-2.13214 -2.18939,-0.96697 -5.43766,-0.24917 -5.98536,2.3707 -0.40745,2.34289 -2.08305,0.0296 -0.99223,-1.13491 0.63675,-1.79813 2.50769,-2.9274 4.49662,-2.98246 1.89372,0.32124 3.91389,0.64851 5.63079,1.57411 1.921,0.80244 3.68643,1.97118 5.6926,2.54905 2.26351,0.97874 4.94225,0.81571 7.28143,0.15848 1.85213,-0.62123 3.40668,-1.96475 4.58076,-3.50763 1.26107,-1.37797 2.2053,-3.27216 4.25825,-3.6206 2.24861,-0.80372 4.12184,0.69963 6.23047,-0.17377 2.2863,-0.76485 3.2367,-2.83406 4.59834,-4.58542 1.34439,-1.84432 3.55088,-1.77233 5.56548,-1.63415 2.05873,-0.27766 0.29647,1.675 -0.94824,1.0088 -2.21385,-0.474 -4.06176,1.17903 -4.96037,3.0493 -1.02179,1.72561 -2.91152,3.23922 -5.00568,3.3119 -2.12236,0.22672 -4.47077,-0.49306 -6.43828,0.52535 -1.37592,1.40154 -2.52131,3.02234 -3.81899,4.46754 -1.30761,1.29968 -2.96918,2.26848 -4.73997,2.59435 -1.27613,0.35663 -2.76354,0.48553 -4.09226,0.41188 z m -21.29762,-3.88039 c -0.6626,-1.99459 1.10953,-3.89096 2.77697,-5.02518 3.22943,-1.45269 7.04418,-1.72007 10.45523,-0.78262 1.94291,0.90137 4.02586,1.3874 6.01593,2.20632 2.25038,0.65078 4.9901,0.49959 6.87777,-1.02408 1.71053,-1.25753 3.50269,-2.53327 4.68074,-4.30967 1.48889,-1.28281 3.30104,-2.7386 5.36341,-1.81303 1.8332,0.88984 4.16306,1.60542 5.56453,-0.39454 1.74907,-1.99416 3.65021,-4.26397 6.47912,-4.55181 2.03093,-0.37738 4.10551,0.16442 5.93636,0.89614 -0.0543,1.63755 -3.00067,-0.18919 -4.13644,-0.16905 -3.03119,-0.22693 -5.2409,2.36893 -7.21715,4.28862 -1.23408,2.25204 -3.75796,1.95053 -5.89213,1.50927 -1.44651,-1.64347 -4.24059,0.1922 -5.54319,1.42257 -1.46215,1.7877 -3.26824,3.3841 -5.16928,4.65606 -1.66237,1.03265 -3.5727,1.32506 -5.49729,0.90986 -2.00008,-0.20791 -3.89369,-0.91679 -5.67388,-1.75653 -2.35386,-0.78551 -4.79233,-1.496 -7.31659,-1.17745 -2.03971,0.30369 -5.82594,0.2227 -6.13044,2.87528 -0.67742,0.91103 -0.52207,1.79616 -1.57367,2.23984 z m 19.40759,-6.19608 c -0.79677,-0.94924 -3.31664,-0.46796 -3.11544,-1.8884 2.46083,0.0241 4.64268,1.67039 7.16435,0.84139 2.56562,-0.43597 3.61503,-3.07154 4.96567,-4.94434 1.76428,-2.36368 5.16243,-2.77717 7.85629,-2.03943 0.90906,0.57939 3.87256,0.35846 3.20075,1.67062 -2.46473,-0.2367 -4.84957,-1.45365 -7.42986,-0.73707 -2.07381,0.4678 -3.22901,2.35451 -4.19005,4.06405 -1.17239,2.16344 -3.66863,3.11932 -6.02928,3.19823 -0.80812,0.0481 -1.6351,0.0463 -2.42243,-0.16505 z"
       sodipodi:nodetypes="scccccccccccccccsccccccccccccccccccccccccccccccccccccccccccccccccccc" />
  </g>
</svg>
